 <svg version="1.0" xmlns="http://www.w3.org/2000/svg" width="700.000000pt" height="526.000000pt" viewBox="0 0 700.000000 526.000000" preserveAspectRatio="xMidYMid meet">
<metadata>
Created by potrace 1.12, written by Peter Selinger 2001-2015
</metadata>
<g transform="translate(0.000000,526.000000) scale(0.100000,-0.100000)" fill="#000000" stroke="none">
<path d="M3390 4836 c-111 -32 -208 -108 -256 -200 l-28 -54 -65 -4 c-116 -9
-223 -85 -273 -193 -32 -70 -32 -191 0 -253 47 -90 129 -158 220 -182 l43 -11
-6 -52 c-15 -135 -35 -383 -35 -430 0 -43 5 -58 23 -75 23 -22 25 -22 471 -22
296 0 454 4 467 11 38 20 40 50 19 282 -11 122 -21 235 -23 251 -2 32 2 35 78
62 61 22 138 92 173 159 23 43 27 63 27 135 0 69 -4 94 -23 132 -51 104 -157
177 -272 187 -63 6 -65 7 -85 46 -11 22 -49 70 -85 106 -50 50 -79 71 -125 88
-73 28 -183 35 -245 17z m246 -77 c76 -38 123 -85 166 -168 l33 -64 75 -1 c87
-2 134 -23 191 -83 72 -75 93 -158 66 -254 -34 -115 -137 -192 -262 -193 -62
-1 -70 -3 -70 -21 0 -12 9 -21 25 -25 21 -5 26 -14 32 -50 15 -98 40 -398 36
-440 l-3 -45 -440 0 -440 0 -3 50 c-1 28 1 75 5 105 l8 55 290 5 c249 4 290 7
290 20 0 13 -41 16 -285 20 l-285 5 4 90 c2 50 6 110 10 135 6 43 8 44 51 55
35 9 46 16 48 34 4 22 2 23 -40 15 -143 -29 -255 24 -320 150 -27 51 -29 153
-4 208 38 88 128 156 220 165 l55 6 3 -64 c2 -51 6 -64 21 -67 13 -3 17 3 17
25 0 45 34 156 63 206 15 25 41 57 58 71 41 35 124 77 169 87 61 13 150 0 216
-32z"></path>
<path d="M3504 4695 c-8 -21 -5 -24 63 -51 71 -29 75 -29 71 -1 -5 37 -123 83
-134 52z"></path>
<path d="M3705 3660 c-14 -22 12 -31 81 -28 53 2 69 6 69 18 0 12 -16 16 -72
18 -45 2 -74 -1 -78 -8z"></path>
<path d="M3124 3557 c-10 -28 0 -82 16 -82 11 0 15 12 15 44 0 44 -19 68 -31
38z"></path>
<path d="M3254 3556 c-11 -29 1 -81 19 -84 14 -3 17 4 17 47 0 39 -4 51 -15
51 -9 0 -18 -6 -21 -14z"></path>
<path d="M3397 3564 c-4 -4 -7 -27 -7 -51 0 -37 3 -44 18 -41 13 3 17 13 17
47 0 41 -12 61 -28 45z"></path>
<path d="M3550 3544 c-15 -40 -9 -69 15 -69 17 0 20 7 20 44 0 52 -20 66 -35
25z"></path>
<path d="M3682 3558 c-17 -17 -15 -63 3 -78 23 -19 37 0 33 45 -3 41 -16 53
-36 33z"></path>
<path d="M3814 3556 c-3 -8 -4 -29 -2 -48 2 -25 8 -33 23 -33 15 0 21 8 23 33
5 47 -30 84 -44 48z"></path>
<path d="M4740 3950 c0 -25 -426 -772 -523 -918 -157 -234 -300 -493 -342
-621 -30 -93 -22 -172 23 -223 40 -47 104 3 196 152 77 124 112 196 173 359
30 79 60 156 68 170 19 38 59 72 156 133 95 61 141 112 189 207 69 138 99 258
107 425 7 151 -11 326 -33 326 -8 0 -14 -4 -14 -10z"></path>
<path d="M2186 3897 c-15 -19 -26 -37 -26 -41 0 -4 54 -88 121 -186 102 -152
120 -184 117 -212 -2 -25 -8 -33 -23 -33 -15 0 -53 49 -145 183 l-125 184 -22
-28 c-55 -70 -59 -56 81 -264 105 -154 127 -193 122 -213 -6 -26 -26 -40 -42
-29 -12 9 -61 77 -163 230 -45 67 -86 122 -89 122 -4 0 -18 -20 -32 -45 -29
-53 -44 -19 131 -295 151 -238 168 -261 212 -284 32 -18 44 -19 107 -10 55 8
76 7 90 -3 10 -7 50 -68 90 -135 234 -396 323 -531 416 -626 70 -72 86 -75
122 -22 18 27 23 44 19 73 -13 98 -127 279 -381 606 -88 112 -165 217 -173
232 -12 23 -12 46 -4 123 12 106 4 171 -30 238 -36 72 -323 468 -339 468 -5 0
-20 -15 -34 -33z"></path>
<path d="M3071 3292 c-50 -43 -51 -32 5 -157 12 -27 36 -86 54 -130 18 -44 38
-93 45 -110 7 -16 77 -185 155 -375 77 -189 146 -350 152 -358 17 -20 58 -10
73 18 14 28 20 41 65 155 38 94 47 117 88 210 17 39 83 198 147 355 64 157
122 297 129 311 12 23 10 29 -29 74 l-42 48 -59 -12 c-128 -27 -574 -24 -714
5 -19 4 -36 -4 -69 -34z m232 -79 c121 -7 122 -13 29 -106 l-68 -68 -47 50
c-48 51 -67 86 -67 123 0 17 4 19 28 14 15 -4 71 -9 125 -13z m577 0 c-1 -33
-38 -98 -79 -137 l-41 -40 -31 30 c-49 45 -110 125 -103 135 3 5 40 9 82 10
42 1 88 5 102 9 44 14 70 11 70 -7z m-278 -139 c46 -47 84 -92 86 -99 3 -14
-136 -172 -166 -189 -13 -7 -33 9 -99 80 -45 49 -83 97 -83 107 0 17 155 187
171 187 4 0 45 -39 91 -86z m-162 -362 c0 -22 -31 -62 -49 -62 -11 0 -28 28
-54 88 -55 130 -50 139 33 57 39 -38 70 -75 70 -83z m290 131 c0 -21 -76 -193
-86 -193 -18 0 -54 36 -54 55 0 21 107 145 126 145 8 0 14 -3 14 -7z m-168
-250 c21 -20 38 -45 38 -56 0 -21 -56 -161 -76 -191 -12 -18 -15 -16 -38 35
-14 30 -34 78 -45 107 l-21 53 41 44 c23 25 46 45 52 45 6 0 28 -17 49 -37z"></path>
<path d="M790 1892 c0 -3 9 -16 21 -28 21 -23 32 -78 45 -238 4 -50 3 -87 -2
-85 -5 2 -33 17 -63 33 -46 23 -62 27 -100 22 -94 -13 -201 -80 -239 -151 -21
-40 -20 -155 2 -222 62 -187 218 -222 355 -79 19 20 38 36 42 36 3 0 9 -22 13
-48 3 -27 12 -57 20 -67 13 -18 15 -18 59 1 52 21 55 30 30 77 -16 28 -18 64
-18 317 l0 285 27 46 c15 25 34 51 42 59 30 24 16 30 -71 30 -49 0 -105 4
-125 9 -21 5 -38 6 -38 3z m-11 -411 c53 -28 60 -39 67 -119 6 -68 5 -74 -21
-112 -35 -51 -109 -100 -150 -100 -21 0 -40 9 -56 26 -22 24 -24 33 -23 127 1
114 18 171 56 187 38 15 86 11 127 -9z"></path>
<path d="M5020 1868 c-25 -5 -66 -7 -92 -4 -27 3 -48 4 -48 2 0 -2 10 -25 22
-52 21 -47 22 -62 21 -319 0 -252 -1 -274 -22 -334 -12 -35 -21 -64 -19 -65 2
-2 38 -1 81 2 l79 4 -7 34 c-8 45 -25 193 -25 223 0 15 17 41 49 72 41 42 54
49 87 49 58 0 101 -30 115 -82 19 -74 -6 -241 -42 -274 -10 -9 -19 -21 -19
-25 0 -4 43 -9 95 -11 52 -2 95 -3 95 -2 0 0 -7 15 -15 32 -15 29 -14 37 9
124 38 137 36 158 -21 219 -65 69 -124 103 -182 103 -47 -1 -116 -29 -140 -58
-27 -32 -34 -17 -26 56 16 164 35 262 55 283 35 37 29 40 -50 23z"></path>
<path d="M3305 1833 c-117 -4 -121 -6 -97 -40 36 -53 42 -91 41 -277 -1 -268
-11 -401 -33 -425 -9 -10 -14 -21 -9 -24 11 -7 132 18 143 29 5 5 2 47 -6 94
-13 84 -13 85 9 102 12 10 28 18 35 18 15 0 172 -235 172 -259 0 -9 -5 -22
-12 -29 -21 -21 -4 -21 52 -2 30 11 83 19 118 20 34 0 62 3 62 8 0 4 -22 19
-48 33 -87 49 -132 89 -193 171 -86 116 -85 113 -48 145 56 51 182 133 204
133 12 0 29 -8 38 -18 25 -27 23 -185 -2 -277 -11 -38 -17 -72 -15 -75 6 -5
166 0 175 6 3 2 -6 27 -20 56 -30 62 -33 151 -8 256 11 49 12 65 3 68 -16 6
-376 10 -376 5 0 -3 8 -13 18 -24 16 -18 16 -20 -18 -49 -72 -61 -149 -118
-160 -118 -19 0 -1 213 27 310 24 85 56 150 74 150 5 0 9 5 9 10 0 6 -10 9
-22 8 -13 -1 -63 -4 -113 -5z"></path>
<path d="M3940 1732 c0 -2 9 -15 20 -29 34 -44 27 -53 -40 -53 -55 0 -61 2
-70 24 -19 52 -85 58 -116 11 -32 -48 16 -92 73 -66 22 10 25 9 30 -8 4 -17
15 -21 77 -23 l71 -3 -4 -186 c-2 -124 0 -198 8 -221 23 -70 81 -98 176 -84
37 6 55 16 88 51 79 82 82 86 64 100 -23 17 -125 50 -133 43 -3 -4 -1 -15 4
-25 13 -25 -1 -58 -34 -79 -25 -17 -27 -17 -41 2 -12 16 -14 44 -9 159 3 77 9
159 12 183 l7 42 72 0 73 0 6 35 c4 20 4 40 1 45 -3 6 -40 10 -81 10 l-74 0
15 36 c8 20 15 37 15 38 0 0 -47 1 -105 1 -58 1 -105 -1 -105 -3z"></path>
<path d="M1095 1695 c-29 -28 -31 -47 -9 -69 21 -22 56 -20 88 5 32 25 33 53
4 73 -32 22 -55 20 -83 -9z"></path>
<path d="M1287 1683 c-3 -4 -1 -31 4 -58 5 -28 10 -85 12 -127 1 -43 5 -77 8
-75 3 1 26 27 50 57 25 30 60 63 79 72 40 19 150 35 150 22 0 -15 -125 -162
-211 -249 l-79 -80 13 -50 12 -50 110 5 c134 5 174 5 245 0 l55 -4 2 97 c1 97
-6 117 -28 75 -27 -54 -60 -77 -118 -83 -31 -3 -71 -8 -88 -11 -18 -3 -33 -1
-33 5 0 13 102 143 183 233 l70 78 5 70 5 70 -190 0 c-105 0 -204 3 -221 6
-16 3 -32 2 -35 -3z"></path>
<path d="M1769 1686 c-3 -3 1 -43 7 -88 7 -46 13 -104 13 -130 1 -49 15 -64
26 -29 3 11 27 42 53 69 43 46 52 51 118 62 39 7 76 11 83 9 14 -5 -93 -137
-204 -249 l-84 -85 13 -50 c12 -48 14 -50 47 -48 87 4 346 5 359 2 12 -3 15
13 18 94 3 101 -6 120 -32 70 -29 -56 -57 -72 -141 -82 -44 -4 -83 -6 -87 -2
-8 7 96 145 190 251 42 48 62 79 62 97 0 26 0 26 21 7 40 -36 49 -68 49 -176
0 -57 5 -121 11 -143 14 -51 73 -110 124 -124 114 -32 198 4 273 115 20 30 9
-179 -13 -234 -35 -85 -111 -117 -161 -67 -21 21 -24 31 -19 57 l7 31 -77 -6
c-43 -4 -89 -7 -102 -7 -31 0 -29 -12 7 -32 16 -9 39 -37 52 -65 20 -42 29
-50 73 -66 113 -39 233 -3 300 92 l30 43 3 196 c1 108 -1 246 -5 306 l-8 110
-104 2 c-115 4 -108 10 -77 -71 17 -46 21 -173 6 -226 -13 -47 -55 -89 -89
-89 -37 0 -87 34 -106 71 -25 48 -29 124 -11 220 9 47 16 87 16 90 0 2 -44 4
-97 4 l-98 0 -3 33 -3 32 -188 0 c-104 0 -201 3 -217 6 -16 3 -32 3 -35 0z"></path>
<path d="M4465 1646 c-60 -28 -127 -99 -143 -154 -25 -83 -9 -175 44 -255 34
-52 128 -97 202 -97 88 0 148 35 213 124 44 59 40 67 -33 64 -62 -3 -62 -3
-69 -36 -11 -54 -35 -72 -93 -72 -95 0 -135 58 -136 195 0 102 18 141 80 173
54 27 84 23 123 -19 27 -30 37 -82 17 -94 -30 -19 -1 -25 98 -20 59 2 108 4
110 5 2 0 -14 17 -35 38 -21 21 -51 57 -66 81 -57 87 -203 118 -312 67z"></path>
<path d="M5675 1601 c-115 -30 -205 -120 -205 -203 0 -39 32 -114 63 -146 47
-51 95 -67 197 -67 100 0 110 3 189 60 19 14 45 25 57 25 49 0 21 16 -47 28
-69 12 -71 12 -101 -13 -59 -49 -198 -23 -214 40 -3 13 -3 29 1 34 4 7 73 11
196 11 213 0 211 -1 190 71 -15 50 -72 114 -125 141 -45 23 -150 33 -201 19z
m166 -80 c17 -18 29 -40 29 -56 l0 -26 -112 3 -113 3 3 25 c1 14 16 37 32 53
25 22 40 27 81 27 43 0 55 -5 80 -29z"></path>
<path d="M6115 1577 c-38 -11 -71 -21 -73 -23 -2 -1 8 -13 21 -26 21 -21 26
-38 32 -109 4 -48 2 -112 -4 -148 -6 -36 -9 -66 -8 -67 1 -1 34 -4 72 -8 l70
-7 0 98 c1 81 4 105 23 140 24 45 62 80 99 89 48 13 107 -54 119 -134 7 -45
-19 -166 -37 -178 -24 -15 10 -24 87 -24 46 0 84 2 84 4 0 2 -7 17 -15 32 -20
38 -19 60 6 149 26 96 19 135 -30 176 -41 34 -116 59 -175 59 -44 0 -132 -36
-155 -63 -21 -26 -31 -20 -31 17 0 19 -3 37 -7 39 -5 3 -39 -5 -78 -16z"></path>
<path d="M1050 1544 c0 -3 11 -15 25 -26 24 -18 25 -25 25 -117 0 -84 -6 -126
-35 -227 -6 -20 -3 -20 87 -16 51 2 94 5 95 6 1 1 -10 26 -25 56 -22 45 -27
67 -26 125 1 39 8 98 17 132 8 34 12 65 9 68 -7 7 -172 6 -172 -1z"></path>
</g>
</svg>